<svg xmlns="http://www.w3.org/2000/svg" width="1200" height="464" viewBox="0 0 1200 464">
<rect width="1200" height="464" fill="#0d1220"/>
<text x="40" y="50" font-size="22" fill="#e6ecf8" font-family="Noto Sans SC" font-weight="700">块名称跟随 DSH 界面语言 · Block names follow the UI language</text><rect x="36" y="84" width="548" height="296" rx="14" fill="#151c2f"/><rect x="36" y="84" width="548" height="296" rx="14" fill="none" stroke="#2a3450" stroke-width="1"/><rect x="60" y="108" width="226" height="28" rx="14" fill="#0b1120"/><rect x="60" y="108" width="226" height="28" rx="14" fill="none" stroke="#232c45" stroke-width="1"/><text x="76" y="126" font-size="12.5" fill="#93a3c0" font-family="Noto Sans SC">设置 → 语言：中文</text><rect x="60" y="158" width="126" height="27" rx="7" fill="#1a2341"/><rect x="60" y="158" width="126" height="27" rx="7" fill="none" stroke="#2a3b7a" stroke-width="1"/><text x="69" y="175.5" font-size="10.5" fill="#7aa2ff" font-family="JetBrains Mono" font-weight="700">&lt;/&gt;</text><text x="92" y="176" font-size="12.5" fill="#8fb0ff" font-family="Noto Sans SC">代码块 1</text><text x="176" y="177" font-size="15" fill="#ff7b7b" font-family="Noto Sans SC" text-anchor="middle">×</text><rect x="194" y="158" width="126" height="27" rx="7" fill="#1d2742"/><rect x="194" y="158" width="126" height="27" rx="7" fill="none" stroke="#3a4a75" stroke-width="1"/><text x="203" y="175.5" font-size="10.5" fill="#93a3c0" font-family="Noto Sans SC" font-weight="700">Aa</text><text x="223" y="176" font-size="12.5" fill="#cdd9f2" font-family="Noto Sans SC">文本块 1</text><text x="310" y="177" font-size="15" fill="#ff7b7b" font-family="Noto Sans SC" text-anchor="middle">×</text><rect x="60" y="206" width="500" height="148" rx="10" fill="#131a2c"/><rect x="60" y="206" width="500" height="148" rx="10" fill="none" stroke="#232c45" stroke-width="1"/><rect x="76" y="220" width="62" height="20" rx="7" fill="#1c2b4d"/><text x="86" y="234" font-size="11" fill="#7aa2ff" font-family="JetBrains Mono">python</text><text x="152" y="234" font-size="11" fill="#5b6a8a" font-family="Noto Sans SC">18 行</text><path d="M 436 229 L 443 222.5 L 450 229" stroke="#93a3c0" stroke-width="1.6" fill="none" stroke-linecap="round" stroke-linejoin="round"/><rect x="468" y="222" width="11" height="13" rx="2" fill="none"/><rect x="468" y="222" width="11" height="13" rx="2" fill="none" stroke="#93a3c0" stroke-width="1"/><rect x="473" y="226" width="11" height="13" rx="2" fill="#131a2c"/><rect x="473" y="226" width="11" height="13" rx="2" fill="none" stroke="#93a3c0" stroke-width="1"/><path d="M 506 222.5 L 499.5 228.5 L 506 235" stroke="#93a3c0" stroke-width="1.6" fill="none" stroke-linecap="round" stroke-linejoin="round"/><text x="534" y="234.5" font-size="16" fill="#ff7b7b" font-family="Noto Sans SC" text-anchor="middle">×</text><text x="76" y="266" font-size="12.5" fill="#d6deeb" font-family="JetBrains Mono">def analyze(chunks):</text><text x="76" y="290" font-size="12.5" fill="#d6deeb" font-family="JetBrains Mono">    total = 0</text><text x="76" y="314" font-size="12.5" fill="#d6deeb" font-family="JetBrains Mono">    return sorted(results)</text><rect x="616" y="84" width="548" height="296" rx="14" fill="#151c2f"/><rect x="616" y="84" width="548" height="296" rx="14" fill="none" stroke="#2a3450" stroke-width="1"/><rect x="640" y="108" width="226" height="28" rx="14" fill="#0b1120"/><rect x="640" y="108" width="226" height="28" rx="14" fill="none" stroke="#232c45" stroke-width="1"/><text x="656" y="126" font-size="12.5" fill="#93a3c0" font-family="Noto Sans SC">Settings → Language: English</text><rect x="640" y="158" width="122" height="27" rx="7" fill="#1a2341"/><rect x="640" y="158" width="122" height="27" rx="7" fill="none" stroke="#2a3b7a" stroke-width="1"/><text x="649" y="175.5" font-size="10.5" fill="#7aa2ff" font-family="JetBrains Mono" font-weight="700">&lt;/&gt;</text><text x="672" y="176" font-size="12.5" fill="#8fb0ff" font-family="Noto Sans SC">Code #1</text><text x="751" y="177" font-size="15" fill="#ff7b7b" font-family="Noto Sans SC" text-anchor="middle">×</text><rect x="770" y="158" width="122" height="27" rx="7" fill="#1d2742"/><rect x="770" y="158" width="122" height="27" rx="7" fill="none" stroke="#3a4a75" stroke-width="1"/><text x="779" y="175.5" font-size="10.5" fill="#93a3c0" font-family="Noto Sans SC" font-weight="700">Aa</text><text x="799" y="176" font-size="12.5" fill="#cdd9f2" font-family="Noto Sans SC">Text #1</text><text x="881" y="177" font-size="15" fill="#ff7b7b" font-family="Noto Sans SC" text-anchor="middle">×</text><rect x="640" y="206" width="500" height="148" rx="10" fill="#131a2c"/><rect x="640" y="206" width="500" height="148" rx="10" fill="none" stroke="#232c45" stroke-width="1"/><rect x="656" y="220" width="62" height="20" rx="7" fill="#1c2b4d"/><text x="666" y="234" font-size="11" fill="#7aa2ff" font-family="JetBrains Mono">python</text><text x="732" y="234" font-size="11" fill="#5b6a8a" font-family="Noto Sans SC">18 lines</text><path d="M 1016 229 L 1023 222.5 L 1030 229" stroke="#93a3c0" stroke-width="1.6" fill="none" stroke-linecap="round" stroke-linejoin="round"/><rect x="1048" y="222" width="11" height="13" rx="2" fill="none"/><rect x="1048" y="222" width="11" height="13" rx="2" fill="none" stroke="#93a3c0" stroke-width="1"/><rect x="1053" y="226" width="11" height="13" rx="2" fill="#131a2c"/><rect x="1053" y="226" width="11" height="13" rx="2" fill="none" stroke="#93a3c0" stroke-width="1"/><path d="M 1086 222.5 L 1079.5 228.5 L 1086 235" stroke="#93a3c0" stroke-width="1.6" fill="none" stroke-linecap="round" stroke-linejoin="round"/><text x="1114" y="234.5" font-size="16" fill="#ff7b7b" font-family="Noto Sans SC" text-anchor="middle">×</text><text x="656" y="266" font-size="12.5" fill="#d6deeb" font-family="JetBrains Mono">def analyze(chunks):</text><text x="656" y="290" font-size="12.5" fill="#d6deeb" font-family="JetBrains Mono">    total = 0</text><text x="656" y="314" font-size="12.5" fill="#d6deeb" font-family="JetBrains Mono">    return sorted(results)</text><path d="M 590 226 h 20 m -7 -6 l 7 6 l -7 6 M 610 246 h -20 m 7 6 l -7 -6 l 7 -6" stroke="#7aa2ff" stroke-width="2.2" fill="none" stroke-linecap="round" stroke-linejoin="round"/><text x="600" y="284" font-size="11" fill="#5b6a8a" font-family="Noto Sans SC" text-anchor="middle">切换</text><text x="600" y="300" font-size="10.5" fill="#5b6a8a" font-family="Noto Sans SC" text-anchor="middle">live</text><text x="40" y="416" font-size="13.5" fill="#93a3c0" font-family="Noto Sans SC">语言切换即时生效：新粘贴的块用新语言命名，已插入的芯片也会同步改名</text><text x="40" y="438" font-size="12" fill="#5b6a8a" font-family="Noto Sans SC">Switch anytime — new pastes land in the new language, existing chips retitle live</text>
</svg>